<?xml version="1.0" encoding="UTF-8" standalone="no"?>
<svg
   width="160"
   height="160"
   viewBox="0 0 160 160"
   fill="none"
   version="1.1"
   id="svg143"
   xmlns="http://www.w3.org/2000/svg"
   xmlns:svg="http://www.w3.org/2000/svg">
  <g
     id="g447"
     transform="matrix(1.6216221,0,0,1.6216221,20,15.945901)">
    <path
       d="M 73.701424,17.4898 C 72.561556,9.0016501 65.177471,2.31235 56.424045,1.01614 54.947208,0.79711501 49.351775,0 36.390124,0 h -0.09682 C 23.32806,0 20.546563,0.79711501 19.069726,1.01614 10.560045,2.27644 2.788773,8.2871196 0.90330715,16.8758 c -0.9068857,4.2298 -1.0036684,8.9191 -0.83519517,13.2207 0.24016331,6.1686 0.28676215,12.326499 0.84594803,18.469999 0.38657689,4.0809 1.06096529,8.1292 2.01808479,12.1147 C 4.7244118,68.042 11.97949,74.1676 19.087592,76.666601 c 7.610264,2.606198 15.794553,3.038898 23.636383,1.249601 0.862686,-0.201102 1.714593,-0.434506 2.555819,-0.700203 1.906933,-0.6068 4.140054,-1.285498 5.781783,-2.477497 0.02256,-0.0168 0.04102,-0.03841 0.054,-0.0632 0.01308,-0.02486 0.02036,-0.05239 0.02126,-0.0805 V 68.6416 c -3.99e-4,-0.0262 -0.0066,-0.052 -0.01827,-0.0755 -0.01168,-0.0235 -0.02835,-0.0441 -0.04901,-0.0603 -0.02066,-0.0162 -0.04462,-0.0275 -0.07017,-0.0332 -0.02555,-0.0057 -0.0521,-0.0056 -0.07756,2.99e-4 -5.024202,1.2021 -10.172669,1.8048 -15.338206,1.795301 -8.889671,0 -11.280498,-4.226201 -11.965217,-5.985601 -0.55027,-1.520599 -0.899716,-3.1067 -1.039455,-4.718 -0.0015,-0.0271 0.0035,-0.0541 0.01447,-0.0789 0.01088,-0.0248 0.02755,-0.0466 0.04851,-0.0637 0.02096,-0.0172 0.04561,-0.0291 0.07206,-0.0349 0.02645,-0.0058 0.0538,-0.0053 0.08005,0.0015 4.940458,1.194 10.004983,1.7967 15.087275,1.7953 1.222314,0 2.441034,0 3.663347,-0.0323 5.111538,-0.1436 10.49906,-0.4057 15.528151,-1.3895 0.125466,-0.0252 0.250931,-0.0467 0.35843,-0.079 7.93256,-1.5261 15.481638,-6.3159 16.248702,-18.445 0.02865,-0.4775 0.100413,-5.0017 0.100413,-5.497199 0.0035,-1.684001 0.541181,-11.946 -0.07895,-18.251101 z"
       fill="url(#paint0_linear_549_34)"
       id="path132"
       style="fill:url(#paint0_linear_549_34);stroke-width:0.999066" />
    <path
       d="M 61.2484,27.0263 V 48.114 H 52.8916 V 27.6475 c 0,-4.3087 -1.7956,-6.5062 -5.4479,-6.5062 -4.015,0 -6.026,2.5996 -6.026,7.7342 V 40.0782 H 33.1111 V 28.8755 c 0,-5.1346 -2.0146,-7.7342 -6.0296,-7.7342 -3.6308,0 -5.4444,2.1975 -5.4444,6.5062 V 48.114 H 13.2839 V 27.0263 c 0,-4.3087 1.1001,-7.7317 3.3004,-10.2691 2.2696,-2.5314 5.2468,-3.8312 8.9421,-3.8312 4.2772,0 7.5093,1.6445 9.6641,4.9299 l 2.0793,3.4901 2.0829,-3.4901 c 2.1547,-3.2854 5.3868,-4.9299 9.6568,-4.9299 3.6918,0 6.6689,1.2998 8.9458,3.8312 2.1978,2.535 3.2955,5.958 3.2931,10.2691 z"
       fill="#ffffff"
       id="path134" />
  </g>
  <defs
     id="defs141">
    <linearGradient
       id="paint0_linear_549_34"
       x1="37.069199"
       y1="0"
       x2="37.069199"
       y2="79"
       gradientUnits="userSpaceOnUse"
       gradientTransform="scale(0.99813277,1)">
      <stop
         stop-color="#6364FF"
         id="stop136" />
      <stop
         offset="1"
         stop-color="#563ACC"
         id="stop138" />
    </linearGradient>
  </defs>
</svg>
